<?xml version="1.0" encoding="utf-8"?><!-- Uploaded to: SVG Repo, www.svgrepo.com, Generator: SVG Repo Mixer Tools -->
<svg width="800px" height="800px" viewBox="0 0 512 512" xmlns="http://www.w3.org/2000/svg" xmlns:xlink="http://www.w3.org/1999/xlink" aria-hidden="true" role="img" class="iconify iconify--fxemoji" preserveAspectRatio="xMidYMid meet"><path fill="#FFC639" d="M260.622 42.537l58.117-39.696c3.641-2.487 8.643-1.147 10.552 2.828l30.483 63.437a7.201 7.201 0 0 0 7.035 4.062l70.179-5.32c4.397-.333 8.058 3.328 7.725 7.725l-5.32 70.179a7.201 7.201 0 0 0 4.062 7.035l63.437 30.483c3.975 1.91 5.315 6.911 2.828 10.552l-39.696 58.117a7.2 7.2 0 0 0 0 8.123l39.696 58.117c2.487 3.641 1.147 8.643-2.828 10.552l-63.437 30.483a7.201 7.201 0 0 0-4.062 7.035l5.32 70.179c.333 4.397-3.328 8.058-7.725 7.725l-70.179-5.32a7.201 7.201 0 0 0-7.035 4.062l-30.483 63.437c-1.91 3.975-6.911 5.315-10.552 2.828l-58.117-39.696a7.2 7.2 0 0 0-8.123 0l-58.117 39.696c-3.641 2.487-8.643 1.147-10.552-2.828l-30.483-63.437a7.201 7.201 0 0 0-7.035-4.062l-70.179 5.32c-4.397.333-8.058-3.328-7.725-7.725l5.32-70.179a7.201 7.201 0 0 0-4.062-7.035L6.228 328.731c-3.975-1.91-5.315-6.911-2.828-10.552l39.696-58.117a7.2 7.2 0 0 0 0-8.123L3.401 193.821c-2.487-3.641-1.147-8.643 2.828-10.552l63.437-30.483a7.201 7.201 0 0 0 4.062-7.035l-5.32-70.179c-.333-4.397 3.328-8.058 7.725-7.725l70.179 5.32a7.201 7.201 0 0 0 7.035-4.062L183.83 5.668c1.91-3.975 6.911-5.315 10.552-2.828l58.117 39.696a7.199 7.199 0 0 0 8.123.001z"></path><circle fill="#FFE564" cx="256.56" cy="256" r="194.415"></circle></svg>