<!DOCTYPE svg PUBLIC "-//W3C//DTD SVG 1.1//EN" "http://www.w3.org/Graphics/SVG/1.1/DTD/svg11.dtd">
<!-- Uploaded to: SVG Repo, www.svgrepo.com, Transformed by: SVG Repo Mixer Tools -->
<svg width="800px" height="800px" viewBox="0 0 32 32" enable-background="new 0 0 32 32" version="1.1" xml:space="preserve" xmlns="http://www.w3.org/2000/svg" xmlns:xlink="http://www.w3.org/1999/xlink" fill="#000000">
<g id="SVGRepo_bgCarrier" stroke-width="0"/>
<g id="SVGRepo_tracerCarrier" stroke-linecap="round" stroke-linejoin="round"/>
<g id="SVGRepo_iconCarrier"> <g id="Packaging_Delivery31"/> <g id="Packaging_Delivery30"/> <g id="Packaging_Delivery29"/> <g id="Packaging_Delivery28"/> <g id="Packaging_Delivery27"/> <g id="Packaging_Delivery26"/> <g id="Packaging_Delivery25"/> <g id="Packaging_Delivery24"/> <g id="Packaging_Delivery23"/> <g id="Packaging_Delivery22"/> <g id="Packaging_Delivery21"/> <g id="Packaging_Delivery20"/> <g id="Packaging_Delivery19"/> <g id="Packaging_Delivery18"/> <g id="Packaging_Delivery17"/> <g id="Packaging_Delivery16"/> <g id="Packaging_Delivery15"/> <g id="Packaging_Delivery14"/> <g id="Packaging_Delivery13"/> <g id="Packaging_Delivery12"/> <g id="Packaging_Delivery11"/> <g id="Packaging_Delivery10"/> <g id="Packaging_Delivery09"/> <g id="Packaging_Delivery08"/> <g id="Packaging_Delivery07"/> <g id="Packaging_Delivery06"> <g> <path d="M31.01,9c0,0.55-0.45,1-1,1c0,0-0.01,0-0.02,0h-28C1.63,10,1.3,9.81,1.12,9.5c-0.17-0.31-0.17-0.69,0-1 l4-7C5.3,1.19,5.63,1,5.99,1h20c0.36,0,0.69,0.19,0.87,0.5l3.91,6.85C30.92,8.53,31.01,8.75,31.01,9z" fill="#b17943"/> </g> <g> <path d="M30.99,9v21c0,0.55-0.45,1-1,1h-28c-0.55,0-1-0.45-1-1V9H30.99z" fill="#80451e"/> </g> <g> <rect fill="#ffeed1" height="8" width="2" x="15" y="1"/> </g> <g> <path d="M21.063,27H10.937c-0.5522,0-1-0.4478-1-1s0.4478-1,1-1h10.126c0.5522,0,1,0.4478,1,1 S21.6152,27,21.063,27z" fill="#ffeed1"/> </g> </g> <g id="Packaging_Delivery05"/> <g id="Packaging_Delivery04"/> <g id="Packaging_Delivery03"/> <g id="Packaging_Delivery02"/> <g id="Packaging_Delivery01"/> </g>
</svg>