<?xml version="1.0" encoding="iso-8859-1"?>
<!-- Uploaded to: SVG Repo, www.svgrepo.com, Generator: SVG Repo Mixer Tools -->
<svg height="800px" width="800px" version="1.1" id="Layer_1" xmlns="http://www.w3.org/2000/svg" xmlns:xlink="http://www.w3.org/1999/xlink" 
	 viewBox="0 0 512 512" xml:space="preserve">
<path style="fill:#7E604A;" d="M374.03,32.34H130.906c-9.061,0-16.407,7.346-16.407,16.407v206.657
	c0,9.061,7.346,16.407,16.407,16.407h243.125c9.061,0,16.407-7.346,16.407-16.407V48.747C390.437,39.686,383.091,32.34,374.03,32.34
	z"/>
<path style="fill:#AC825A;" d="M252.468,32.34H130.906c-9.061,0-16.407,7.346-16.407,16.407v206.657
	c0,9.061,7.346,16.407,16.407,16.407h121.562V32.34z"/>
<path style="fill:#FF9900;" d="M252.468,80.852c9.061,0,16.407-7.346,16.407-16.407V32.34h-32.813v32.105
	C236.061,73.506,243.407,80.852,252.468,80.852z"/>
<path style="fill:#FAD52A;" d="M252.468,80.852V32.34h-16.407v32.105C236.061,73.506,243.407,80.852,252.468,80.852z"/>
<path style="fill:#FF9900;" d="M259.532,240.19H16.407C7.346,240.19,0,247.536,0,256.597v206.657
	c0,9.061,7.346,16.406,16.407,16.406h243.125c9.061,0,16.407-7.346,16.407-16.407V256.597
	C275.938,247.536,268.593,240.19,259.532,240.19z"/>
<path style="fill:#FAD52A;" d="M137.969,240.19H16.407C7.346,240.19,0,247.536,0,256.597v206.657
	c0,9.061,7.346,16.406,16.407,16.406h121.562V240.19z"/>
<path style="fill:#7E604A;" d="M137.969,288.702c9.061,0,16.407-7.346,16.407-16.407V240.19h-32.813v32.105
	C121.562,281.356,128.908,288.702,137.969,288.702z"/>
<path style="fill:#AC825A;" d="M137.969,288.702V240.19h-16.407v32.105C121.562,281.356,128.908,288.702,137.969,288.702z"/>
<path style="fill:#D83249;" d="M495.593,240.19H252.468c-9.061,0-16.407,7.346-16.407,16.407v206.657
	c0,9.061,7.346,16.407,16.407,16.407h243.125c9.061,0,16.407-7.346,16.407-16.407V256.597
	C512,247.536,504.654,240.19,495.593,240.19z"/>
<path style="fill:#FF4F59;" d="M374.03,240.19H252.468c-9.061,0-16.407,7.346-16.407,16.407v206.657
	c0,9.061,7.346,16.407,16.407,16.407H374.03V240.19z"/>
<path style="fill:#FF9900;" d="M374.03,288.702c9.061,0,16.407-7.346,16.407-16.407V240.19h-32.813v32.105
	C357.624,281.356,364.969,288.702,374.03,288.702z"/>
<path style="fill:#FAD52A;" d="M374.03,288.702V240.19h-16.407v32.105C357.624,281.356,364.969,288.702,374.03,288.702z"/>
</svg>