<?xml version="1.0" encoding="utf-8"?>
<!-- Uploaded to: SVG Repo, www.svgrepo.com, Generator: SVG Repo Mixer Tools -->
<svg width="800px" height="800px" viewBox="0 0 1024 1024" class="icon"  version="1.1" xmlns="http://www.w3.org/2000/svg"><path d="M663.4 736h192v167.5h-192z" fill="#A4A9AD" /><path d="M681.2 790.3h82.3v39.6h-82.3zM773 843h82.3v39.6H773zM663.4 736h192v45h-192z" fill="" /><path d="M872.4 720.3c0-5.2-4.3-9.5-9.5-9.5H655.8c-5.2 0-9.5 4.3-9.5 9.5v31.5c0 5.2 4.3 9.5 9.5 9.5h207.1c5.2 0 9.5-4.3 9.5-9.5v-31.5z" fill="#D68231" /><path d="M738.6 82.1c-21.3 0-40.5 8.8-54.2 23-11.6-7.3-25.4-11.6-40.2-11.6-41.6 0-75.4 33.7-75.4 75.4v1c-43 6.6-76 43.7-76 88.6 0 49.5 40.1 89.6 89.6 89.6S672 308 672 258.5c0-6.5-0.7-12.7-2-18.8 10.8-4 20.5-10.3 28.3-18.5 11.6 7.3 25.4 11.6 40.2 11.6 41.6 0 75.4-33.7 75.4-75.4 0-41.6-33.7-75.3-75.3-75.3z" fill="#D1D3D3" /><path d="M673 258.4H492l-39.8 645.1h260.5z" fill="#333E48" /><path d="M679 357.2H485.9l-1.8 28.5h196.7l-1.8-28.5z m3.6 57.8H482.3l-1.8 28.5h203.8l-1.7-28.5z" fill="#D68231" /><path d="M131.4 546.8h490.9v356.7H131.4z" fill="#A4A9AD" /><path d="M540 773.2h82.3v39.6H540zM131.2 725.2h82.3v39.6h-82.3zM411 576.2h82.3v39.6H411zM233.2 546.8h82.3v39.6h-82.3zM201.8 829.9h82.3v39.6h-82.3zM573.6 664.3c0-10.4-8.5-19-19-19H199.1c-10.4 0-19 8.5-19 19v34.9c0 10.4 8.5 19 19 19h355.5c10.4 0 19-8.5 19-19v-34.9z" fill="" /><path d="M573.6 634.8c0-10.4-8.5-19-19-19H199.1c-10.4 0-19 8.5-19 19v34.9c0 10.4 8.5 19 19 19h355.5c10.4 0 19-8.5 19-19v-34.9z" fill="#FFFFFF" /><path d="M554.6 615.8H199.1c-10.4 0-19 8.5-19 19V659c0-10.4 8.5-19 19-19h355.5c10.4 0 19 8.5 19 19v-24.2c0-10.4-8.5-19-19-19z" fill="" /><path d="M131.4 472.6v74.2h81.8l-74.3-74.3c-3-3-7.5-4.6-7.5 0.1zM213.2 472.6v74.2H295l-74.3-74.3c-2.9-3-7.5-4.6-7.5 0.1zM295.1 472.6v74.2h81.8l-74.3-74.3c-3-3-7.5-4.6-7.5 0.1z" fill="#D1D3D3" /><path d="M376.9 472.6v74.2h81.8l-74.3-74.3c-3-3-7.5-4.6-7.5 0.1zM458.7 472.6v74.2h81.8l-74.3-74.3c-3-3-7.5-4.6-7.5 0.1zM540.5 472.6v74.2h81.8L548 472.5c-2.9-3-7.5-4.6-7.5 0.1zM263.1 756.3h227.7v147.2H263.1z" fill="#D1D3D3" /><path d="M263.1 786.7h227.7v28.5H263.1zM263.1 840.8h227.7v28.5H263.1z" fill="" /><path d="M260.1 615.8h28.5v72.9h-28.5zM362.6 615.8h28.5v72.9h-28.5zM465.2 615.8h28.5v72.9h-28.5z" fill="#A4A9AD" /><path d="M199.1 630.1c-2.6 0-4.7 2.2-4.7 4.7v34.9c0 2.6 2.2 4.7 4.7 4.7h355.5c2.6 0 4.7-2.2 4.7-4.7v-34.9c0-2.6-2.2-4.7-4.7-4.7H199.1zM554.6 703H199.1c-18.3 0-33.2-14.9-33.2-33.2v-34.9c0-18.3 14.9-33.2 33.2-33.2h355.5c18.3 0 33.2 14.9 33.2 33.2v34.9c0.1 18.3-14.8 33.2-33.2 33.2z" fill="#D68231" /><path d="M957.9 933.3c0 4.2-3.5 7.7-7.7 7.7h-875c-4.2 0-7.7-3.5-7.7-7.7v-27.5c0-4.2 3.5-7.7 7.7-7.7h875.1c4.2 0 7.7 3.5 7.7 7.7v27.5z" fill="#333E48" /></svg>