<?xml version="1.0" encoding="iso-8859-1"?>

<!DOCTYPE svg PUBLIC "-//W3C//DTD SVG 1.1//EN" "http://www.w3.org/Graphics/SVG/1.1/DTD/svg11.dtd">
<!-- Uploaded to: SVG Repo, www.svgrepo.com, Generator: SVG Repo Mixer Tools -->
<svg version="1.1" id="_x36_" xmlns="http://www.w3.org/2000/svg" xmlns:xlink="http://www.w3.org/1999/xlink" 
	 viewBox="0 0 512 512"  xml:space="preserve">
<g>
	<polygon style="fill:none;" points="318.872,164.945 305.096,178.721 318.872,187.599 	"/>
	<g>
		<g>
			<g>
				<g>
					<path style="fill:#96C9BA;" d="M285.585,76.334v219.753c0,14.656-8.386,27.43-20.612,33.779
						c-2.821,1.489-5.799,2.586-8.934,3.291c-2.743,0.706-5.643,1.02-8.542,1.02c-6.348,0-12.226-1.568-17.477-4.311
						c-12.226-6.349-20.612-19.122-20.612-33.779V76.334c0-10.501,4.31-19.984,11.207-26.881s16.379-11.207,26.881-11.207
						c5.14,0,10.026,1.108,14.511,3.019c0.068,0.029,0.138,0.05,0.205,0.078c1.939,0.84,3.823,1.787,5.582,2.937
						c0.627,0.391,1.254,0.783,1.803,1.175c0.549,0.392,1.097,0.784,1.645,1.254c1.176,0.94,2.273,1.959,3.37,3.057
						c0.784,0.783,1.567,1.567,2.195,2.43c0.784,0.861,1.489,1.802,2.195,2.82c0.627,0.941,1.175,1.802,1.646,2.744
						c0.314,0.548,0.627,1.096,0.94,1.724c0.784,1.489,1.411,3.057,1.881,4.624c0.314,0.784,0.549,1.568,0.784,2.352
						c0.235,0.862,0.47,1.646,0.627,2.507c0.235,1.176,0.392,2.273,0.47,3.448C285.507,73.749,285.585,75.002,285.585,76.334z"/>
					<path style="fill:#96C9BA;" d="M174.846,76.334v219.753c0,8.7-2.978,16.694-7.994,23.12
						c-3.292,4.388-7.602,8.071-12.618,10.658c-5.251,2.743-11.129,4.311-17.477,4.311c-6.348,0-12.226-1.568-17.477-4.311
						c-12.226-6.349-20.612-19.122-20.612-33.779V76.334c0-0.077,0-0.077,0-0.156c0.078-10.423,4.31-19.828,11.207-26.725
						c6.897-6.897,16.301-11.207,26.803-11.207h0.079C157.683,38.246,174.846,55.409,174.846,76.334z"/>
					<path style="fill:#B8C6C6;" d="M412.704,42.791v270.694c0,5.722-1.019,11.286-3.057,16.38
						c-1.019,3.057-2.508,5.878-4.232,8.542c-8.307,13.167-23.041,21.944-39.656,21.944c-5.094,0-10.031-0.784-14.577-2.352
						c-15.517-5.094-27.508-18.103-31.113-34.248c-0.784-3.291-1.176-6.74-1.176-10.267V42.791c0-2.351,0.157-4.702,0.549-7.054
						c1.254-8.386,4.781-16.066,9.953-22.414c1.019-1.254,2.116-2.507,3.292-3.606c3.997-4.075,8.777-7.366,14.028-9.718h38.167
						c6.74,3.058,12.696,7.681,17.32,13.324c5.172,6.348,8.699,14.028,9.953,22.414C412.468,38.089,412.704,40.441,412.704,42.791z"
						/>
				</g>
				<path style="opacity:0.1;fill:#040000;" d="M412.704,42.791v5.956c-0.157,0.156-0.314,0.234-0.549,0.391
					c-2.43,1.49-5.329,2.43-8.386,2.43h-75.942c-3.057,0-5.956-0.94-8.386-2.43c-0.235-0.157-0.392-0.235-0.549-0.391v-5.956
					c0-2.351,0.157-4.702,0.549-7.054c1.254-8.386,4.781-16.066,9.953-22.414h72.807c5.172,6.348,8.699,14.028,9.953,22.414
					C412.468,38.089,412.704,40.441,412.704,42.791z"/>
				<path style="fill:#B8C6C6;" d="M419.365,15.596v7.055c0,5.486-2.9,10.345-7.21,13.087c-2.43,1.567-5.329,2.508-8.386,2.508
					h-75.942c-3.057,0-5.956-0.941-8.386-2.508c-4.389-2.743-7.21-7.602-7.21-13.087v-7.055C312.232,7.055,319.206,0,327.827,0
					h75.942C412.311,0,419.365,7.055,419.365,15.596z"/>
			</g>
			<polygon style="fill:#B4B3B3;" points="512,230.569 510.511,250.084 510.511,250.24 508.552,277.514 506.906,300.163 
				503.614,344.834 498.05,420.228 496.717,438.175 21.317,438.175 11.129,299.614 7.602,251.651 1.802,173.123 1.568,169.988 
				1.568,169.753 0,149.062 15.988,158.859 98.67,209.722 132.448,230.569 132.526,230.569 130.332,169.91 130.332,169.753 
				129.548,149.062 174.846,177.591 209.408,199.377 256.039,228.688 259.017,230.569 259.017,149.062 285.585,166.148 
				318.893,187.621 385.43,230.569 385.509,230.569 387.703,169.597 388.487,149.062 412.704,165.051 			"/>
			<polygon style="fill:#F2F2F2;" points="510.589,250.318 508.552,277.514 506.906,300.163 503.614,344.834 498.128,420.228 
				498.05,420.228 496.717,438.175 495.385,455.573 22.649,455.573 21.552,440.29 21.395,438.175 11.129,299.614 7.602,251.651 
				1.724,173.123 1.489,169.91 1.568,169.988 1.568,169.753 3.762,171.085 98.67,229.08 133.231,250.24 132.448,230.569 
				130.175,169.831 130.332,169.91 130.332,169.753 174.846,197.575 209.408,219.205 256.039,248.359 259.017,250.24 
				259.017,230.569 258.939,169.753 259.017,169.753 285.585,186.76 312.623,204.079 318.893,208.076 384.725,250.162 
				385.43,230.569 387.703,169.597 412.704,185.976 510.511,250.084 510.511,250.24 			"/>
			<g>
				<g>
					<rect x="44.789" y="290.441" style="fill:#88BBC0;" width="122.078" height="39.454"/>
					<rect x="44.789" y="338.406" style="fill:#88BBC0;" width="122.078" height="39.454"/>
				</g>
				<g>
					<rect x="197.986" y="290.441" style="fill:#88BBC0;" width="122.078" height="39.454"/>
					<rect x="197.986" y="338.406" style="fill:#88BBC0;" width="122.078" height="39.454"/>
				</g>
				<g>
					<rect x="351.182" y="290.441" style="fill:#88BBC0;" width="122.078" height="39.454"/>
					<rect x="351.182" y="338.406" style="fill:#88BBC0;" width="122.078" height="39.454"/>
				</g>
			</g>
		</g>
		<path style="opacity:0.06;fill:#040000;" d="M512,230.569l-1.411,19.75l-2.038,27.196l-1.646,22.648l-8.778,120.065h-0.078
			l-1.332,17.947l-1.332,17.398H256.039V39.343c4.232,0.941,8.151,2.665,11.756,4.938c0.627,0.391,1.254,0.783,1.803,1.175
			c0.549,0.392,1.097,0.784,1.645,1.254c1.176,0.94,2.273,1.959,3.37,3.057c0.784,0.783,1.567,1.567,2.195,2.43
			c0.784,0.94,1.568,1.881,2.195,2.82c0.627,0.941,1.175,1.802,1.646,2.744c0.314,0.548,0.627,1.096,0.94,1.724
			c0.784,1.489,1.411,3.057,1.881,4.624c0.314,0.784,0.549,1.568,0.784,2.352c0.235,0.862,0.47,1.646,0.627,2.507
			c0.235,1.176,0.392,2.273,0.47,3.448c0.156,1.334,0.235,2.587,0.235,3.919v89.814l33.308,21.474V42.791
			c0-2.351,0.157-4.702,0.549-7.054c-4.389-2.743-7.21-7.602-7.21-13.087v-7.055C312.232,7.055,319.206,0,327.827,0h75.942
			c8.542,0,15.596,7.055,15.596,15.596v7.055c0,5.486-2.9,10.345-7.21,13.087c0.313,2.351,0.549,4.703,0.549,7.054v122.181
			L512,230.569z"/>
	</g>
</g>
</svg>