<?xml version="1.0" encoding="iso-8859-1"?>
<!-- Uploaded to: SVG Repo, www.svgrepo.com, Generator: SVG Repo Mixer Tools -->
<svg height="800px" width="800px" version="1.1" id="Layer_1" xmlns="http://www.w3.org/2000/svg" xmlns:xlink="http://www.w3.org/1999/xlink" 
	 viewBox="0 0 511.982 511.982" xml:space="preserve">
<path style="fill:#FFCE54;" d="M117.326,240.003H10.672C4.766,240.003,0,244.769,0,250.659v127.989
	c0,5.891,4.766,10.672,10.672,10.672h106.654c5.891,0,10.672-4.781,10.672-10.672V250.659
	C127.998,244.768,123.217,240.003,117.326,240.003z"/>
<path style="fill:#656D78;" d="M117.326,240.003H10.672C4.766,240.003,0,244.769,0,250.659v31.991h127.998v-31.991
	C127.998,244.768,123.217,240.003,117.326,240.003z"/>
<path style="fill:#ED5564;" d="M202.668,303.994h-85.342c-5.89,0-10.656-4.781-10.656-10.672V186.66
	c0-5.891,4.766-10.656,10.656-10.656h32c5.891,0,10.672,4.766,10.672,10.656v63.999h42.671c5.875,0,10.656,4.781,10.656,10.672
	v31.991C213.324,299.213,208.543,303.994,202.668,303.994z"/>
<path style="fill:#DA4453;" d="M159.997,250.659v-15.078L106.67,288.9v4.422c0,5.891,4.766,10.672,10.656,10.672h4.422
	l53.327-53.335H159.997z"/>
<path style="fill:#CCD1D9;" d="M330.666,389.32c-3.906,0-7.688-2.156-9.547-5.891l-72.358-144.723
	c-2.641-5.266-0.5-11.672,4.766-14.312c5.266-2.625,11.672-0.5,14.313,4.781l72.357,144.708c2.641,5.266,0.5,11.672-4.766,14.312
	C333.9,388.961,332.26,389.32,330.666,389.32z"/>
<path style="fill:#656D78;" d="M245.324,346.649H117.326c-5.89,0-10.656-4.766-10.656-10.656v-42.671
	c0-5.891,4.766-10.672,10.656-10.672h127.998c5.891,0,10.672,4.781,10.672,10.672v42.671
	C255.995,341.884,251.214,346.649,245.324,346.649z"/>
<path style="fill:#FFCE54;" d="M333.51,325.321H10.672C4.766,325.321,0,330.102,0,335.993v42.655
	c0,5.891,4.766,10.672,10.672,10.672h322.837c5.891,0,10.672-4.781,10.672-10.672v-42.655
	C344.181,330.102,339.4,325.321,333.51,325.321z"/>
<path style="fill:#656D78;" d="M511.835,334.227c-0.953-5.797-6.453-9.734-12.266-8.766l-117.341,19.562L341.197,78.381
	c-0.891-5.828-6.344-9.812-12.156-8.922c-5.828,0.891-9.828,6.344-8.922,12.172l42.656,277.315c0.016,0.016,0.016,0.047,0.016,0.062
	c0,0.031,0,0.047,0.016,0.062c0.016,0.156,0.062,0.281,0.094,0.438s0.047,0.312,0.094,0.469s0.094,0.312,0.141,0.469
	s0.094,0.312,0.141,0.453c0.062,0.156,0.125,0.312,0.188,0.453c0.047,0.156,0.109,0.297,0.172,0.438s0.156,0.297,0.234,0.438
	c0.062,0.141,0.125,0.266,0.203,0.391c0.078,0.156,0.172,0.297,0.266,0.438c0.078,0.125,0.156,0.25,0.234,0.359
	c0.094,0.141,0.203,0.281,0.312,0.422c0.078,0.094,0.156,0.219,0.25,0.312c0.109,0.141,0.234,0.266,0.359,0.391
	c0.078,0.108,0.172,0.202,0.266,0.296c0.125,0.125,0.25,0.25,0.391,0.359c0.094,0.094,0.188,0.188,0.281,0.266
	c0.141,0.125,0.281,0.219,0.422,0.328c0.109,0.078,0.203,0.172,0.312,0.234c0.141,0.109,0.297,0.203,0.453,0.297
	c0.109,0.078,0.203,0.141,0.328,0.203c0.156,0.094,0.312,0.172,0.469,0.266c0.125,0.047,0.234,0.125,0.344,0.172
	c0.172,0.078,0.344,0.156,0.531,0.219c0.109,0.047,0.203,0.094,0.312,0.141c0.203,0.078,0.406,0.125,0.594,0.188
	c0.109,0.031,0.203,0.078,0.297,0.094c0.234,0.078,0.469,0.125,0.719,0.172c0.062,0.016,0.125,0.031,0.203,0.047
	c0.609,0.109,1.25,0.172,1.891,0.172c0.078,0,0.141-0.016,0.203-0.016c0.219,0,0.422,0,0.641-0.016
	c0.109-0.016,0.219-0.031,0.328-0.047c0.156-0.016,0.312-0.031,0.469-0.047c0.016,0,0.031-0.016,0.047-0.016
	c0.031,0,0.062,0,0.078-0.016l127.997-21.327C508.882,345.54,512.803,340.04,511.835,334.227z"/>
<path style="fill:#E6E9ED;" d="M341.197,377.039l-42.655-277.33c-0.016-0.078-0.047-0.141-0.047-0.219
	c-0.047-0.203-0.094-0.422-0.141-0.625c-0.031-0.141-0.062-0.281-0.109-0.422c-0.047-0.203-0.109-0.391-0.172-0.578
	c-0.062-0.156-0.109-0.297-0.172-0.453c-0.062-0.172-0.141-0.328-0.203-0.5c-0.078-0.156-0.156-0.312-0.234-0.469
	c-0.078-0.141-0.156-0.281-0.234-0.422c-0.094-0.172-0.188-0.328-0.297-0.484c-0.078-0.125-0.172-0.25-0.25-0.375
	c-0.109-0.156-0.234-0.312-0.344-0.469c-0.094-0.109-0.203-0.234-0.297-0.344c-0.125-0.141-0.25-0.281-0.375-0.422
	c-0.109-0.109-0.234-0.219-0.344-0.328c-0.125-0.125-0.266-0.234-0.391-0.359c-0.141-0.109-0.266-0.219-0.406-0.312
	c-0.125-0.109-0.266-0.203-0.391-0.312c-0.156-0.094-0.297-0.188-0.453-0.281c-0.141-0.094-0.266-0.172-0.406-0.266
	c-0.156-0.078-0.328-0.172-0.484-0.25c-0.141-0.078-0.297-0.141-0.438-0.219c-0.172-0.062-0.328-0.125-0.5-0.203
	c-0.156-0.062-0.312-0.109-0.484-0.172c-0.156-0.047-0.312-0.094-0.469-0.141c-0.187-0.062-0.374-0.109-0.562-0.141
	c-0.141-0.031-0.281-0.062-0.438-0.094c-0.203-0.031-0.406-0.062-0.609-0.094c-0.141-0.016-0.297-0.031-0.438-0.047
	c-0.203-0.016-0.422-0.031-0.641-0.031c-0.078,0-0.141-0.016-0.219-0.016h-170.67c-5.89,0-10.656,4.781-10.656,10.672v258.878
	c0,5.89,4.766,10.655,10.656,10.655c5.891,0,10.672-4.766,10.672-10.655V112.006h150.842l41.279,268.268
	c0.812,5.281,5.344,9.047,10.531,9.047c0.531,0,1.078-0.047,1.625-0.125C338.103,388.304,342.103,382.851,341.197,377.039z"/>
<g>
	<path style="fill:#434A54;" d="M32,261.331c5.891,0,10.671-4.781,10.671-10.672v-10.656H21.328v10.656
		C21.328,256.55,26.109,261.331,32,261.331z"/>
	<path style="fill:#434A54;" d="M74.671,261.331c5.875,0,10.656-4.781,10.656-10.672v-10.656H63.999v10.656
		C63.999,256.55,68.764,261.331,74.671,261.331z"/>
	<path style="fill:#434A54;" d="M238.449,252.596c-3.406,0-6.766-1.641-8.828-4.688c-3.312-4.859-2.047-11.5,2.828-14.812
		l33.734-22.921c4.875-3.312,11.516-2.047,14.828,2.828c3.297,4.875,2.031,11.499-2.828,14.812l-33.75,22.938
		C242.605,251.987,240.511,252.596,238.449,252.596z"/>
	<path style="fill:#434A54;" d="M330.65,314.649c-35.28,0-63.998,28.719-63.998,63.999c0,35.297,28.718,63.999,63.998,63.999
		c35.297,0,63.999-28.702,63.999-63.999C394.649,343.368,365.947,314.649,330.65,314.649z"/>
</g>
<path style="fill:#F5F7FA;" d="M351.994,378.648c0,11.781-9.562,21.344-21.344,21.344s-21.327-9.562-21.327-21.344
	s9.546-21.327,21.327-21.327S351.994,366.867,351.994,378.648z"/>
<path style="fill:#434A54;" d="M95.998,314.649c-35.296,0-63.999,28.719-63.999,63.999c0,35.297,28.703,63.999,63.999,63.999
	c35.281,0,63.999-28.702,63.999-63.999C159.997,343.368,131.279,314.649,95.998,314.649z"/>
<path style="fill:#F5F7FA;" d="M117.326,378.648c0,11.781-9.546,21.344-21.328,21.344c-11.781,0-21.328-9.562-21.328-21.344
	s9.547-21.327,21.328-21.327C107.78,357.321,117.326,366.867,117.326,378.648z"/>
</svg>