<!DOCTYPE svg PUBLIC "-//W3C//DTD SVG 1.1//EN" "http://www.w3.org/Graphics/SVG/1.1/DTD/svg11.dtd">
<!-- Uploaded to: SVG Repo, www.svgrepo.com, Transformed by: SVG Repo Mixer Tools -->
<svg height="800px" width="800px" version="1.1" id="Layer_1" xmlns="http://www.w3.org/2000/svg" xmlns:xlink="http://www.w3.org/1999/xlink" viewBox="0 0 512 512" xml:space="preserve" fill="#000000">
<g id="SVGRepo_bgCarrier" stroke-width="0"/>
<g id="SVGRepo_tracerCarrier" stroke-linecap="round" stroke-linejoin="round"/>
<g id="SVGRepo_iconCarrier"> <path style="fill:#ebebeb;" d="M439.652,150.261V16.696C439.652,7.473,432.174,0,422.957,0H300.522 c-6.327,0-12.109,3.571-14.935,9.228l-27.826,66.783c-4.119,8.25-0.782,18.277,7.467,22.402l44.305,24.929L256,195.293v-45.033 c0-6.327-3.576-12.103-9.228-14.935L198.5,108.413l28.816-86.44c1.695-5.087,0.848-10.685-2.294-15.038S216.848,0,211.478,0H89.043 c-9.217,0-16.696,7.473-16.696,16.696v133.565c0,82.37,55.402,154.597,133.565,176.722v84.843h-16.696 c-46.032,0-83.478,37.446-83.478,83.478c0,9.223,7.479,16.696,16.696,16.696h267.13c9.217,0,16.696-7.473,16.696-16.696 c0-46.032-37.446-83.478-83.478-83.478h-16.696v-84.843C384.25,304.858,439.652,232.631,439.652,150.261z"/> <path style="fill:#d6d6d6;" d="M422.957,0H300.522c-6.327,0-12.109,3.571-14.935,9.228l-27.826,66.783 c-4.119,8.25-0.782,18.277,7.467,22.402l44.305,24.929L256,195.293V512h133.565c9.217,0,16.696-7.473,16.696-16.696 c0-46.032-37.446-83.478-83.478-83.478h-16.696v-84.843c78.163-22.125,133.565-94.353,133.565-176.722V16.696 C439.652,7.473,432.174,0,422.957,0z"/> </g>
</svg>