<?xml version="1.0" encoding="iso-8859-1"?>
<!-- Uploaded to: SVG Repo, www.svgrepo.com, Generator: SVG Repo Mixer Tools -->
<svg height="800px" width="800px" version="1.1" id="Layer_1" xmlns="http://www.w3.org/2000/svg" xmlns:xlink="http://www.w3.org/1999/xlink" 
	 viewBox="0 0 512 512" xml:space="preserve">
<polyline style="fill:#D6E5F6;" points="335.241,345.685 493.714,345.685 493.714,84.464 128,84.464 128,202.884 "/>
<polygon style="fill:#BCD6F2;" points="310.857,84.464 310.857,328.884 335.241,345.685 493.714,345.685 493.714,84.464 "/>
<g>
	<path style="fill:#A8DA64;" d="M493.714,363.971H335.241c-10.099,0-18.286-8.186-18.286-18.286
		c0-10.097,8.187-18.286,18.286-18.286h140.188V102.75H146.286v100.134c0,10.099-8.187,18.286-18.286,18.286
		s-18.286-8.187-18.286-18.286V84.464c0-10.099,8.187-18.286,18.286-18.286h365.714c10.099,0,18.286,8.187,18.286,18.286v261.221
		C512,355.785,503.813,363.971,493.714,363.971z"/>
	<path style="fill:#A8DA64;" d="M197.661,66.178H128c-10.099,0-18.286,8.187-18.286,18.286v69.658
		c0,10.1,8.187,18.286,18.286,18.286c48.494,0,87.947-39.451,87.947-87.943C215.947,74.366,207.76,66.178,197.661,66.178z"/>
</g>
<g>
	<path style="fill:#78B86D;" d="M493.714,257.741c-48.492,0-87.945,39.452-87.945,87.946c0,10.1,8.187,18.286,18.286,18.286h69.659
		c10.099,0,18.286-8.186,18.286-18.286v-69.66C512,265.929,503.813,257.741,493.714,257.741z"/>
	<path style="fill:#78B86D;" d="M493.714,66.178h-69.659c-10.099,0-18.286,8.187-18.286,18.286
		c0,48.491,39.451,87.943,87.945,87.943c10.099,0,18.286-8.186,18.286-18.286V84.464C512,74.366,503.813,66.178,493.714,66.178z"/>
</g>
<path style="fill:#A8DA64;" d="M310.857,162.51c-26.767,0-50.711,12.47-60.999,31.77c-3.022,5.666-2.848,12.504,0.456,18.011
	c3.305,5.508,9.257,8.876,15.678,8.877l50.964,0.001l0.001,23.435c0,6.129,3.072,11.85,8.179,15.238
	c3.042,2.016,6.565,3.048,10.108,3.048c2.409,0,4.826-0.477,7.111-1.441c21.454-9.058,34.779-26.826,34.779-46.374
	C377.134,185.599,348.022,162.51,310.857,162.51z"/>
<g>
	<path style="fill:#78B86D;" d="M310.857,162.51v58.658h6.099l0.001,23.435c0,6.129,3.072,11.85,8.179,15.238
		c3.042,2.016,6.565,3.048,10.108,3.048c2.409,0,4.826-0.477,7.111-1.441c21.454-9.057,34.779-26.826,34.779-46.374
		C377.134,185.599,348.022,162.51,310.857,162.51z"/>
	<path style="fill:#78B86D;" d="M493.714,66.178H310.857v36.571h164.571V327.4H335.241c-10.099,0-18.286,8.188-18.286,18.286
		c0,10.1,8.187,18.286,18.286,18.286h158.474c10.099,0,18.286-8.186,18.286-18.286V84.464C512,74.366,503.813,66.178,493.714,66.178
		z"/>
</g>
<path style="fill:#8CB7E8;" d="M335.241,184.598H18.286C8.187,184.598,0,192.785,0,202.884v224.652
	c0,10.099,8.187,18.286,18.286,18.286h316.955c10.099,0,18.286-8.187,18.286-18.286V202.884
	C353.526,192.785,345.339,184.598,335.241,184.598z"/>
<path style="fill:#6398DE;" d="M335.241,184.598H176.763v261.224h158.477c10.099,0,18.286-8.187,18.286-18.286V202.884
	C353.526,192.785,345.339,184.598,335.241,184.598z"/>
<path style="fill:#294996;" d="M335.241,294.312H18.286C8.187,294.312,0,286.125,0,276.027c0-10.099,8.187-18.286,18.286-18.286
	h316.955c10.099,0,18.286,8.187,18.286,18.286S345.339,294.312,335.241,294.312z"/>
<path style="fill:#D6E5F6;" d="M152.383,330.884H91.429c-10.099,0-18.286,8.187-18.286,18.286c0,10.099,8.187,18.286,18.286,18.286
	h60.955c10.099,0,18.286-8.187,18.286-18.286C170.669,339.071,162.482,330.884,152.383,330.884z"/>
<path style="fill:#1D3366;" d="M335.241,257.741H176.763v36.571h158.477c10.099,0,18.286-8.187,18.286-18.286
	C353.526,265.928,345.339,257.741,335.241,257.741z"/>
</svg>