<!DOCTYPE svg PUBLIC "-//W3C//DTD SVG 1.1//EN" "http://www.w3.org/Graphics/SVG/1.1/DTD/svg11.dtd">
<!-- Uploaded to: SVG Repo, www.svgrepo.com, Transformed by: SVG Repo Mixer Tools -->
<svg width="800px" height="800px" viewBox="0 0 48 48" version="1" xmlns="http://www.w3.org/2000/svg" enable-background="new 0 0 48 48" fill="#000000">
<g id="SVGRepo_bgCarrier" stroke-width="0"/>
<g id="SVGRepo_tracerCarrier" stroke-linecap="round" stroke-linejoin="round"/>
<g id="SVGRepo_iconCarrier"> <path fill="#CFD8DC" d="M5,38V14h38v24c0,2.2-1.8,4-4,4H9C6.8,42,5,40.2,5,38z"/> <path fill="#163745" d="M43,10v6H5v-6c0-2.2,1.8-4,4-4h30C41.2,6,43,7.8,43,10z"/> <g fill="#163745"> <circle cx="33" cy="10" r="3"/> <circle cx="15" cy="10" r="3"/> </g> <g fill="#B0BEC5"> <path d="M33,3c-1.1,0-2,0.9-2,2v5c0,1.1,0.9,2,2,2s2-0.9,2-2V5C35,3.9,34.1,3,33,3z"/> <path d="M15,3c-1.1,0-2,0.9-2,2v5c0,1.1,0.9,2,2,2s2-0.9,2-2V5C17,3.9,16.1,3,15,3z"/> </g> <g fill="#B0BEC5"> <rect x="13" y="21" width="6" height="6"/> <rect x="21" y="21" width="6" height="6"/> <rect x="29" y="21" width="6" height="6"/> <rect x="13" y="29" width="6" height="6"/> <rect x="21" y="29" width="6" height="6"/> </g> <rect x="29" y="29" fill="#163745" width="6" height="6"/> </g>
</svg>