<?xml version="1.0" encoding="iso-8859-1"?>
<!-- Uploaded to: SVG Repo, www.svgrepo.com, Generator: SVG Repo Mixer Tools -->
<svg version="1.1" id="Layer_1" xmlns="http://www.w3.org/2000/svg" xmlns:xlink="http://www.w3.org/1999/xlink" 
	 viewBox="0 0 512 512" xml:space="preserve">
<polygon style="fill:#FFAD61;" points="10.199,372.56 10.199,299.881 331.021,299.881 331.021,133.234 457.369,133.234 
	501.801,241.284 501.801,372.56 "/>
<g>
	<polygon style="fill:#72BEDE;" points="433.58,167.568 392.742,167.568 392.742,244.314 466.457,244.314 	"/>
	<circle style="fill:#72BEDE;" cx="85.082" cy="372.557" r="36.353"/>
	<circle style="fill:#72BEDE;" cx="408.213" cy="372.557" r="36.353"/>
</g>
<rect x="10.199" y="103.083" style="fill:#F2F2F2;" width="320.826" height="196.794"/>
<polygon style="fill:#FFAD61;" points="243.436,206.17 172.895,137.688 102.354,206.17 123.015,206.17 123.015,263.437 
	222.775,263.437 222.775,206.17 "/>
<g>
	<path style="fill:#534741;" d="M0,372.56c0,5.632,4.566,10.199,10.199,10.199h29.467c4.664,20.777,23.248,36.353,45.413,36.353
		s40.749-15.575,45.413-36.353h232.313c4.664,20.777,23.248,36.353,45.413,36.353c22.165,0,40.749-15.575,45.413-36.353h48.17
		c5.633,0,10.199-4.567,10.199-10.199V241.284c0-1.331-0.26-2.649-0.766-3.879l-44.432-108.049c-1.573-3.825-5.297-6.32-9.433-6.32
		H341.22v-19.948c0-5.632-4.566-10.199-10.199-10.199H10.199C4.566,92.888,0,97.455,0,103.087V372.56z M320.822,289.682H20.398
		V113.287h300.424V289.682z M85.079,398.713c-14.422,0-26.154-11.732-26.154-26.154c0-14.422,11.732-26.155,26.154-26.155
		s26.154,11.733,26.154,26.155C111.233,386.981,99.499,398.713,85.079,398.713z M408.217,398.713
		c-14.422,0-26.154-11.732-26.154-26.154c0-14.422,11.732-26.155,26.154-26.155s26.155,11.733,26.155,26.155
		C434.372,386.981,422.639,398.713,408.217,398.713z M453.631,362.36c-4.664-20.778-23.248-36.354-45.414-36.354
		c-22.165,0-40.749,15.575-45.413,36.354H130.492c-4.664-20.778-23.248-36.354-45.413-36.354S44.33,341.581,39.666,362.36H20.398
		v-52.28h310.623c5.633,0,10.199-4.567,10.199-10.199V143.433h109.315l41.066,99.865v34.237h-15.046
		c-5.633,0-10.199,4.567-10.199,10.199c0,5.632,4.566,10.199,10.199,10.199h15.046v11.916h-15.046
		c-5.633,0-10.199,4.567-10.199,10.199c0,5.632,4.566,10.199,10.199,10.199h15.046v32.112L453.631,362.36L453.631,362.36z"/>
	<path style="fill:#534741;" d="M474.972,249.929c1.887-2.863,2.21-6.481,0.861-9.631l-32.877-76.746
		c-1.606-3.751-5.294-6.184-9.375-6.184h-40.84c-5.633,0-10.199,4.567-10.199,10.199v76.746c0,5.632,4.566,10.199,10.199,10.199
		h73.716C469.885,254.513,473.085,252.791,474.972,249.929z M402.941,234.115v-56.348h23.913l24.138,56.348L402.941,234.115
		L402.941,234.115z"/>
	<path style="fill:#534741;" d="M446.477,277.536h-3.124c-5.633,0-10.199,4.567-10.199,10.199c0,5.632,4.566,10.199,10.199,10.199
		h3.124c5.633,0,10.199-4.567,10.199-10.199C456.676,282.103,452.11,277.536,446.477,277.536z"/>
	<path style="fill:#534741;" d="M102.354,216.369h10.461v47.069c0,5.632,4.566,10.199,10.199,10.199h99.76
		c5.633,0,10.199-4.567,10.199-10.199v-47.069h10.462c4.153,0,7.891-2.518,9.452-6.366c1.56-3.847,0.632-8.258-2.348-11.151
		l-70.542-68.482c-3.957-3.843-10.251-3.843-14.209,0l-70.54,68.482c-2.979,2.892-3.908,7.303-2.348,11.151
		C94.463,213.851,98.201,216.369,102.354,216.369z M172.895,151.904l46.127,44.78c-3.776,1.495-6.446,5.178-6.446,9.486v47.069
		h-79.362V206.17c0-4.308-2.67-7.991-6.446-9.486L172.895,151.904z"/>
</g>
</svg>